<svg xmlns="http://www.w3.org/2000/svg" xmlns:xlink="http://www.w3.org/1999/xlink"><symbol id="icon-close" viewBox="0 0 20 20"><path d="M.293 18.291a1 1 0 101.414 1.414L10 11.413l8.292 8.292a1 1 0 101.414-1.414l-8.292-8.292 8.292-8.292A1 1 0 1018.291.293L9.999 8.585 1.707.293A1 1 0 10.293 1.707L8.585 10 .293 18.291z"/></symbol><symbol id="star" viewBox="0 0 20 19">
<path d="M10.2013 0.306L12.6793 6.171L19.0233 6.716C19.4633 6.754 19.6423 7.303 19.3083 7.592L14.4963 11.761L15.9383 17.963C16.0383 18.394 15.5713 18.733 15.1933 18.504L9.74128 15.216L4.28928 18.504C3.91028 18.732 3.44428 18.393 3.54428 17.963L4.98628 11.761L0.173282 7.591C-0.160718 7.302 0.0172817 6.753 0.458282 6.715L6.80228 6.17L9.28028 0.306C9.45228 -0.102 10.0293 -0.102 10.2013 0.306Z" fill="#EF5252"/>
</symbol></svg>